<svg width="121" height="134" viewBox="0 0 121 134" fill="none" xmlns="http://www.w3.org/2000/svg">
    <path d="M109.039 55.1567C108.818 55.2127 108.614 55.3204 108.443 55.4711C108.273 55.6218 108.141 55.811 108.058 56.023H107.902L107.298 55.925C107.298 55.925 104.127 55.6634 103.538 55.7043C103.345 55.6993 103.156 55.6467 102.987 55.5512C102.819 55.4557 102.677 55.3202 102.574 55.1567L100.212 53.1625L100.032 53.0072L100.449 52.8601C100.449 52.8601 94.1145 44.9976 92.7496 44.8423C91.3847 44.687 89.1289 42.8562 89.1044 42.8317V42.7091C89.0554 42.4475 89.0227 42.1778 88.99 41.8918L89.3251 42.0961C89.3251 42.0062 89.3251 41.9163 89.3251 41.8182C89.3775 40.8472 89.7065 39.9114 90.2731 39.1211C90.9352 38.2057 91.9078 37.4865 92.3001 36.4321C92.454 35.9773 92.5233 35.4981 92.5044 35.0182C92.5167 34.1563 92.2904 33.3077 91.8505 32.5663C91.6241 32.1957 91.3223 31.8768 90.9647 31.6304C90.6071 31.384 90.2016 31.2156 89.7746 31.136C89.5539 31.136 89.3251 31.136 89.1044 31.0461C87.7804 30.7355 87.2982 28.962 86.015 28.5288C85.3995 28.3663 84.7459 28.4331 84.1761 28.7168C83.5958 28.962 83.0809 29.3216 82.5415 29.5995C81.944 29.8384 81.3695 30.1311 80.8251 30.474L80.6617 30.6129L80.5554 30.711C80.3429 30.9264 80.1589 31.1681 80.0078 31.4302V31.4711C80.0078 31.4711 80.0078 31.5283 79.9669 31.5528V31.6182V31.7V31.7735V31.8471V31.9288V32.0024V32.0922C79.9697 32.114 79.9697 32.1359 79.9669 32.1576C79.9669 32.1576 79.9669 32.2148 79.9669 32.2475C79.9623 32.2691 79.9623 32.2914 79.9669 32.3129C79.9624 32.3427 79.9624 32.373 79.9669 32.4028V32.5581C79.9707 32.5742 79.9707 32.591 79.9669 32.6072V32.7461C80.1154 33.0706 80.3233 33.3644 80.5799 33.6124L80.5064 33.686C79.963 34.2069 79.5308 34.8325 79.2359 35.5251C78.9409 36.2176 78.7892 36.9626 78.79 37.7153C78.7908 38.0497 78.8208 38.3834 78.8799 38.7125C78.5898 38.4926 78.2775 38.3036 77.9482 38.1485C76.8622 37.6224 75.6731 37.3433 74.4664 37.3312C72.8678 37.2353 71.2825 36.9807 69.7342 36.5711C69.8019 36.7064 69.854 36.849 69.8895 36.9961L69.4972 36.7755C68.3449 36.1555 67.0957 35.7354 65.803 35.5331C65.803 35.5331 64.9856 35.6476 64.8794 33.8985C64.8394 33.3608 64.7407 32.8292 64.5852 32.3129C64.0026 30.7539 63.5622 29.1455 63.2693 27.5072L63.0078 24.9654C63.0078 24.9654 64.2419 18.3697 63.4982 15.5745C63.6491 15.1729 63.6637 14.7328 63.5396 14.3222C63.4155 13.9115 63.1597 13.5531 62.8116 13.3024C59.7059 11.0139 56.5674 19.9307 56.5674 19.9307L55.3986 21.0586C55.0996 20.8642 54.7624 20.736 54.4097 20.6827C53.8684 21.384 53.5039 22.2054 53.3472 23.0774C53.1183 24.0091 51.5328 25.5293 50.078 26.8125C49.0645 27.7033 48.0837 28.6269 47.1111 29.5504C46.3837 30.237 44.7737 31.185 41.2592 31.7735L39.7472 32.0187C39.8657 31.6041 39.9263 31.175 39.927 30.7437C39.9224 29.6588 39.5484 28.6077 38.8664 27.7639C38.1845 26.92 37.2354 26.3336 36.1756 26.1014C36.1919 25.9876 36.1919 25.872 36.1756 25.7581C36.115 25.5148 35.9909 25.292 35.8159 25.1125C35.1492 24.1338 34.2395 23.3452 33.176 22.824C32.7209 22.6471 32.2334 22.5691 31.7458 22.5951H31.3943C30.8757 22.6234 30.369 22.762 29.9082 23.0016C29.4473 23.2412 29.0428 23.5763 28.7217 23.9846C28.3294 24.5158 28.0924 25.137 27.7491 25.7009C27.068 26.718 26.1548 27.5584 25.0847 28.1528C24.4554 28.5288 23.7852 28.8639 23.1886 29.2971C22.126 30.1133 21.3152 31.2128 20.8497 32.4692C20.3841 33.7256 20.2826 35.0879 20.5568 36.3995C20.802 37.5437 21.3087 38.6716 21.1698 39.8322C21.0002 40.722 20.6282 41.5609 20.0828 42.2841C19.5393 43.0244 19.1299 43.8543 18.8732 44.736C18.7541 45.174 18.7616 45.6368 18.8947 46.0707C19.0277 46.5046 19.281 46.892 19.6251 47.1879C19.9125 47.3501 20.1859 47.536 20.4424 47.7437C20.5966 47.9274 20.7258 48.1308 20.8265 48.3485C21.2211 49.0591 21.7555 49.6825 22.3974 50.1812C23.0393 50.6798 23.7755 51.0433 24.5616 51.2499C24.8118 51.3176 25.0711 51.3452 25.3299 51.3317H25.4116C25.681 51.3885 25.9614 51.3572 26.2116 51.2424C26.4618 51.1276 26.6685 50.9354 26.8011 50.6942C26.8288 50.5743 26.8728 50.4588 26.9318 50.3509C26.9872 50.2736 27.0684 50.2186 27.1607 50.1956C27.3529 50.2342 27.5377 50.3032 27.7083 50.4C28.53 50.821 29.4275 51.0739 30.3481 51.1437C30.5032 51.1559 30.659 51.1559 30.814 51.1437C31.1359 51.1751 31.4607 51.1304 31.7621 51.0129C32.0523 50.8657 32.302 50.6496 32.4895 50.3836L32.6121 50.2201C32.3976 51.5034 31.9955 52.7481 31.4189 53.9144C30.8555 54.8986 30.5491 56.0089 30.528 57.1427C30.489 57.7317 30.6134 58.32 30.8876 58.8428L30.9775 58.6629C31.4709 59.5467 32.0661 60.3696 32.751 61.1149C32.8364 62.395 32.7788 63.6806 32.5794 64.948C32.1089 66.5374 32.1484 68.2342 32.6923 69.7999C33.2362 71.3656 34.2571 72.7215 35.6116 73.6769L36.6169 75.8836L32.4732 76.1778C32.0563 76.1206 26.6294 75.3605 26.6049 76.4476C26.5804 77.5346 27.4222 88.2985 30.2338 87.5711C32.8573 86.8927 31.991 83.7543 31.8684 83.3374H31.9583H31.8602L33.9525 81.3514C33.9737 81.2324 33.9708 81.1103 33.9442 80.9924C33.9175 80.8745 33.8675 80.7632 33.7972 80.6648L38.8563 80.8937L40.0415 83.4927C40.0415 83.4927 42.0602 86.5658 40.4256 89.1485C38.7909 91.7312 37.091 95.7769 36.8213 98.2206C36.4911 99.9316 35.7191 101.526 34.5818 102.847C33.6338 103.174 29.9967 104.596 31.4434 106.761C33.078 109.213 38.5131 113.954 40.6953 113.79C42.8775 113.627 42.003 112.041 42.003 112.041L40.1804 110.26C40.0238 108.63 39.9583 106.993 39.9842 105.356C40.0015 105.098 39.9298 104.842 39.7811 104.631C39.6323 104.419 39.4155 104.266 39.1669 104.195C39.3386 102.961 39.7717 100.64 40.7035 99.3485C42.0193 97.5423 46.2203 89.6062 46.2203 89.6062C46.2203 89.6062 47.5525 88.4211 47.2582 84.8904C47.1356 83.4682 47.0703 82.2177 47.0294 81.2288L51.7862 81.4413C51.7862 81.4413 56.8862 80.9346 53.4208 75.4668C49.9554 69.999 42.5914 64.6374 42.5914 64.6374L42.5261 61.2538L43.0573 61.3846C43.0573 61.3846 43.0573 61.262 42.9756 61.0413H43.0573C42.4514 58.3368 42.0011 55.5998 41.7087 52.8437L42.0111 52.9826C45.1741 56.6442 47.3073 53.5466 47.3073 53.5466C47.3073 53.5466 53.9929 44.1557 53.339 44.5562C53.2692 44.5859 53.1942 44.6012 53.1184 44.6012C53.0425 44.6012 52.9675 44.5859 52.8977 44.5562L53.3799 43.0196C53.3799 43.0196 55.3578 40.0038 52.489 38.3038C50.1515 36.9226 50.2088 41.2625 50.315 42.9053L50.2006 42.799C50.2006 42.799 47.9611 46.1663 46.7597 48.0543C45.5583 49.9423 44.553 48.6999 44.553 48.6999L43.0328 46.9918C43.2803 46.3054 43.4021 45.58 43.3924 44.8504C43.4258 44.3421 43.3513 43.8325 43.1739 43.355C42.9964 42.8775 42.7199 42.4429 42.3626 42.0798C41.4638 41.242 40.9174 40.0937 40.8342 38.8678C40.8451 38.4132 40.948 37.9656 41.1366 37.5519L49.0237 33.3754C49.0237 33.3754 50.6583 33.3754 52.9222 29.9591C54.3731 27.7539 55.9704 25.6487 57.7035 23.6576L57.5727 23.4778L57.7035 23.3307C57.7035 23.3307 57.6136 23.1999 57.4501 22.9956L58.6679 21.5899C58.6353 22.2242 58.6353 22.8598 58.6679 23.4942L59.289 25.6274L59.6487 37.4701C59.6487 37.4701 59.2645 38.6062 61.7246 39.7341C63.8006 40.6904 67.0943 42.3086 68.0506 42.7745C68.0339 42.8217 68.0148 42.8681 67.9934 42.9134H68.2794C73.077 42.4802 72.9135 47.2697 72.9135 47.2697C72.9135 47.2697 73.2405 57.0202 71.7693 60.412C70.8461 62.8332 70.4181 65.4151 70.5107 68.0048C70.5107 68.0048 70.6578 67.2937 71.4833 68.2254L71.426 68.487C70.9602 70.8408 69.9876 75.8427 69.7914 77.8615C69.5926 79.7109 69.2372 81.54 68.7289 83.3293L68.2386 92.3197L71.3117 92.4668V92.7855C71.3037 92.9546 71.252 93.1188 71.1618 93.262C71.0716 93.4052 70.9458 93.5226 70.7967 93.6028C69.7424 94.1749 67.266 96.1774 67.4621 102.34L67.3559 103.353C67.1845 105.034 66.6757 106.663 65.8602 108.143C65.7896 108.258 65.7268 108.378 65.6722 108.502C65.6791 108.437 65.7079 108.377 65.7539 108.331C65.7539 108.331 64.1602 108.658 64.4871 112.965C64.814 117.272 65.3044 118.032 65.9582 118.081C66.6121 118.13 69.8078 118.899 69.6443 117.329C69.4809 115.76 69.3174 112.213 69.5381 111.673C69.7587 111.134 70.6169 109.687 69.7914 109.336C70.031 108.349 70.1464 107.336 70.1347 106.32C70.9197 105.063 71.8436 103.897 72.889 102.847C74.0333 101.899 74.6544 100.297 75.0712 98.237C75.0712 98.1062 78.4549 95.8668 77.9645 94.0115C77.8828 93.6955 77.8174 93.423 77.7684 93.1942C77.7684 93.0716 77.7683 92.9653 77.7111 92.8672H77.7765L78.4549 88.7807V92.7692L78.8636 92.8182V93.1451L78.6919 96.962C78.6604 97.7076 78.4943 98.4414 78.2015 99.1278C76.8958 102.165 76.3165 105.464 76.5097 108.764L76.4689 112.434C76.3544 112.434 74.6871 112.85 75.0058 117.011C75.3328 121.318 75.8231 122.07 76.477 122.127C77.1308 122.184 80.3265 122.944 80.1631 121.375C79.9996 119.806 79.8362 116.259 80.0487 115.719C80.2612 115.18 80.6453 113.758 79.8198 113.406C79.824 112.925 79.9415 112.452 80.1631 112.025C80.5227 111.412 81.7241 108.502 82.615 106.263C83.5379 103.998 84.0526 101.588 84.1352 99.1442V99.0624C84.1609 98.2388 84.3382 97.427 84.6582 96.6677C85.0216 95.8132 85.3141 94.9303 85.5328 94.0278C85.5328 93.9216 85.5328 93.8153 85.59 93.7173L86.3664 93.8153L89.0472 82.2422C89.0472 82.2422 89.7746 75.9653 89.4232 73.1293C89.4232 73.0149 89.4232 72.9004 89.3741 72.8023H89.5376C89.5376 72.8023 90.0852 71.4047 89.9217 65.4466C89.7583 59.4884 91.0088 57.5841 91.0088 57.5841C91.6871 55.4346 92.439 54.7153 92.8722 54.4701C92.9867 54.4016 93.1152 54.3598 93.2482 54.3476L95.2751 56.6687L95.651 57.0937L95.8227 57.2817C95.8146 57.1865 95.8146 57.0908 95.8227 56.9956C96.9016 57.625 99.4025 59.0879 100.89 60.1423C102.835 61.5153 103.342 61.36 105.066 61.2129C106.237 61.0243 107.371 60.6519 108.426 60.1096H108.507C108.767 60.2448 109.042 60.3517 109.325 60.4283C109.325 60.4283 112.071 62.7495 112.332 58.5076C112.594 54.2658 109.039 55.1567 109.039 55.1567ZM37.8511 104.547C37.5676 104.464 37.2936 104.352 37.0338 104.211L37.8511 104.547ZM33.5602 58.6303V59.2351C33.5439 59.0471 33.552 58.8346 33.5602 58.6303ZM76.4607 112.393V112.63C76.4116 112.507 76.3871 112.507 76.4607 112.393Z" fill="url(#paint0_linear_159_4384)"/>
    <path d="M85.2231 41.8267H80.5645V46.7223H85.2231V41.8267Z" fill="#6C63FF"/>
    <path d="M74.8996 98.3847C74.491 100.428 73.8862 102.022 72.7583 102.962C71.7314 104.007 70.824 105.164 70.053 106.411C70.053 109.762 69.1458 110.775 69.1458 110.775L68.2386 111.02H65.991C65.7773 110.436 65.6159 109.835 65.5088 109.222C65.5368 108.865 65.658 108.521 65.8602 108.225C66.6619 106.753 67.162 105.136 67.3314 103.468L67.4295 102.479C67.2415 96.3496 69.6689 94.3553 70.6987 93.7914C70.8452 93.7089 70.9685 93.5908 71.0571 93.4479C71.1457 93.305 71.1967 93.142 71.2054 92.9741L71.3852 91.2251L77.4333 91.5193C77.3615 92.1094 77.3975 92.7075 77.5396 93.2847C77.5396 93.538 77.6458 93.8241 77.7275 94.1429C78.2179 96.0309 74.9242 98.2457 74.8996 98.3847Z" fill="#A0616A"/>
    <path d="M85.1571 94.1506C84.9633 95.0451 84.6898 95.9204 84.3398 96.766C84.0269 97.5244 83.8525 98.3327 83.8249 99.1526V99.2343C83.7453 101.662 83.2419 104.058 82.3374 106.312C81.4465 108.535 80.2696 111.429 79.8854 112.033C79.5375 112.9 79.455 113.85 79.6484 114.763L76.2402 114.526L76.2975 108.805C76.097 105.529 76.6564 102.25 77.9321 99.2261C78.2148 98.5429 78.3753 97.8154 78.4061 97.0766L78.5777 93.2761L78.6268 92.1564C78.6268 92.1564 84.6503 91.2982 85.1652 92.6631C85.2878 93.1518 85.285 93.6634 85.1571 94.1506Z" fill="#A0616A"/>
    <path d="M74.8996 98.3847C74.491 100.428 73.8862 102.022 72.7583 102.962C71.7314 104.007 70.824 105.164 70.053 106.411C70.053 109.762 69.1458 110.775 69.1458 110.775L68.2386 111.02H65.991C65.7773 110.436 65.6159 109.835 65.5088 109.222C65.5368 108.865 65.658 108.521 65.8602 108.225C66.6619 106.753 67.162 105.136 67.3314 103.468L67.4295 102.479C67.2415 96.3496 69.6689 94.3553 70.6987 93.7914C70.8452 93.7089 70.9685 93.5908 71.0571 93.4479C71.1457 93.305 71.1967 93.142 71.2054 92.9741L71.3852 91.2251L77.4333 91.5193C77.3615 92.1094 77.3975 92.7075 77.5396 93.2847C77.5396 93.538 77.6458 93.8241 77.7275 94.1429C78.2179 96.0309 74.9242 98.2457 74.8996 98.3847Z" fill="#8E5362"/>
    <path d="M85.1571 94.1506C84.9633 95.0451 84.6898 95.9204 84.3398 96.766C84.0269 97.5244 83.8525 98.3327 83.8249 99.1526V99.2343C83.7453 101.662 83.2419 104.058 82.3374 106.312C81.4465 108.535 80.2696 111.429 79.8854 112.033C79.5375 112.9 79.455 113.85 79.6484 114.763L76.2402 114.526L76.2975 108.805C76.097 105.529 76.6564 102.25 77.9321 99.2261C78.2148 98.5429 78.3753 97.8154 78.4061 97.0766L78.5777 93.2761L78.6268 92.1564C78.6268 92.1564 84.6503 91.2982 85.1652 92.6631C85.2878 93.1518 85.285 93.6634 85.1571 94.1506Z" fill="#8E5362"/>
    <path opacity="0.1" d="M77.548 93.3253L71.2139 93.0147L71.3937 91.2656L77.4418 91.5598C77.3699 92.1499 77.4059 92.7481 77.548 93.3253Z" fill="black"/>
    <path opacity="0.1" d="M85.1576 94.151L78.6191 93.2683L78.6682 92.1486C78.6682 92.1486 84.6917 91.2904 85.2066 92.6553C85.3173 93.15 85.3004 93.6646 85.1576 94.151Z" fill="black"/>
    <path d="M88.6066 82.4306L85.983 93.9383L78.2186 92.8922V88.9364L77.5484 93.0229L68.2393 92.5652L68.7214 83.6484C69.219 81.8717 69.5662 80.0564 69.7594 78.2215C69.9392 76.2027 70.8955 71.2335 71.3941 68.9042C71.5412 68.0869 71.6392 67.6455 71.6392 67.6455C71.6392 67.6455 87.5931 70.9638 88.6392 72.1652C88.8627 72.5366 88.9892 72.9582 89.007 73.3912C89.3258 76.1946 88.6066 82.4306 88.6066 82.4306Z" fill="#2F2E41"/>
    <path opacity="0.1" d="M69.9795 83.1828C69.9795 83.1828 76.2564 79.9135 77.7848 80.5837L69.9795 83.1828Z" fill="black"/>
    <path opacity="0.1" d="M73.4043 72.4595C73.4043 72.4595 78.6187 76.4234 78.7821 77.4941L73.4043 72.4595Z" fill="black"/>
    <path opacity="0.1" d="M71.9824 86.0677C71.9824 86.0677 75.7584 85.9124 76.9598 86.885L71.9824 86.0677Z" fill="black"/>
    <path opacity="0.1" d="M78.7983 81.834C78.7983 81.834 80.5882 87.7023 79.8118 89.3124C79.0353 90.9225 78.2344 88.9364 78.2344 88.9364L78.7983 81.834Z" fill="black"/>
    <path d="M76.2652 112.442C76.2652 112.442 74.4916 112.712 74.8185 116.995C75.1455 121.277 75.6359 122.021 76.2652 122.078C76.8945 122.136 80.033 122.896 79.8777 121.327C79.7224 119.757 79.5507 116.243 79.7714 115.712C79.9921 115.18 80.3517 113.758 79.5426 113.407L79.3628 114.224C79.3628 114.224 77.6546 112.647 76.6329 113.799C76.592 113.521 76.5235 113.247 76.4286 112.982C76.3469 112.728 76.1017 112.598 76.2652 112.442Z" fill="#2F2E41"/>
    <path d="M108.589 59.8972C108.589 59.8972 108.189 60.1179 107.592 60.4039C106.566 60.9372 105.463 61.3067 104.323 61.4991C102.688 61.6381 102.133 61.8015 100.236 60.4366C98.7734 59.3904 96.3215 57.9275 95.259 57.3063L94.7932 57.0284H94.7441L95.6268 54.5765L98.7571 52.9419L99.5744 53.6121L101.887 55.5981C101.987 55.7587 102.125 55.8921 102.289 55.9862C102.453 56.0803 102.638 56.1324 102.827 56.1376C103.408 56.0967 106.522 56.3582 106.522 56.3582L107.11 56.4563L108.352 56.6606L108.589 59.8972Z" fill="#A0616A"/>
    <path opacity="0.1" d="M108.59 59.897C108.59 59.897 108.189 60.1177 107.593 60.4038C106.963 60.085 106.187 59.4802 106.489 58.4912C106.792 57.5023 106.833 56.8975 107.053 56.3989L108.296 56.6033L108.59 59.897Z" fill="black"/>
    <path d="M108.172 55.5579C108.172 55.5579 111.662 54.5526 111.401 58.7699C111.139 62.9872 108.45 60.6743 108.45 60.6743C108.45 60.6743 106.162 60.0776 106.644 58.492C107.126 56.9064 106.987 55.942 108.172 55.5579Z" fill="#A0616A"/>
    <path d="M71.9573 41.9085L68.3202 43.4369H68.263H68.2222L67.9933 43.3224C67.0534 42.8566 63.825 41.2547 61.79 40.2984C59.338 39.1787 59.7549 38.0508 59.7549 38.0508L59.4034 26.2734L58.7904 24.1647C58.7904 24.1647 58.3491 16.9888 61.839 15.1743C65.3289 13.3599 63.0731 25.5542 63.0731 25.5542L63.3265 28.0878C63.5063 29.7063 63.8263 31.306 64.2827 32.8691C64.4379 33.3794 64.534 33.906 64.5688 34.4383C64.6751 36.1546 65.476 36.0729 65.476 36.0729C66.7444 36.2705 67.9692 36.6853 69.0967 37.2989C69.5149 37.523 69.9164 37.7771 70.2981 38.059L71.9573 41.9085Z" fill="#A0616A"/>
    <path d="M84.9114 47.5315L81.8057 47.2046C82.3575 46.3682 82.7997 45.4646 83.1215 44.5156C83.1793 44.3362 83.2258 44.1533 83.2605 43.9681C83.3786 43.5078 83.3172 43.0198 83.0888 42.6031C82.1816 41.2627 88.4994 39.3911 88.4994 39.3911C88.4212 40.1321 88.3966 40.8778 88.4259 41.6224C88.4493 42.1374 88.5038 42.6505 88.5893 43.1589C88.6855 44.1354 89.1503 45.0385 89.8888 45.6844C91.8749 47.0493 84.9114 47.5315 84.9114 47.5315Z" fill="#8E5362"/>
    <path opacity="0.1" d="M84.9114 47.5318L81.8057 47.2048C82.3575 46.3685 82.7997 45.4648 83.1215 44.5159C83.4811 45.0308 83.6037 45.0144 84.1105 45.1207C84.1105 45.1207 87.2408 45.5866 88.5893 43.1592C88.6855 44.1356 89.1503 45.0387 89.8888 45.6846C91.8749 47.0495 84.9114 47.5318 84.9114 47.5318Z" fill="black"/>
    <path opacity="0.1" d="M95.2263 57.3063C95.2184 57.4015 95.2184 57.4972 95.2263 57.5924L94.7441 57.0284L95.6268 54.5765L98.7571 52.9419L99.5744 53.6121C98.4138 53.9717 95.2835 55.2958 95.2263 57.3063Z" fill="black"/>
    <path opacity="0.1" d="M71.9573 41.9084L68.3203 43.4368H68.2222H67.9443L67.9934 43.2978C68.2958 42.5623 69.7097 38.9661 69.0968 37.2661C69.515 37.4903 69.9165 37.7443 70.2982 38.0262L71.9573 41.9084Z" fill="black"/>
    <path opacity="0.1" d="M88.9743 73.3746C87.5604 73.2438 73.3882 71.9361 72.0642 69.852C71.858 69.5109 71.6229 69.1882 71.3613 68.8875C71.5084 68.0702 71.6065 67.6289 71.6065 67.6289C71.6065 67.6289 87.5603 70.9471 88.6065 72.1486C88.83 72.5199 88.9565 72.9415 88.9743 73.3746Z" fill="black"/>
    <path d="M84.1112 45.2759C84.1112 45.2759 87.2742 45.7499 88.6146 43.2816C88.6146 43.2816 90.854 45.1206 92.1944 45.284C93.5348 45.4475 99.7381 53.2528 99.7381 53.2528C99.7381 53.2528 94.7607 54.8874 95.0795 57.4292L92.6929 54.6994C92.6929 54.6994 91.516 54.6504 90.5026 57.9115C90.5026 57.9115 89.2684 59.7831 89.4319 65.7249C89.5953 71.6667 89.0559 73.0807 89.0559 73.0807C89.0559 73.0807 73.4208 71.7403 72.0314 69.5417C70.6419 67.3432 70.3968 68.422 70.3968 68.422C70.3034 65.8485 70.72 63.2819 71.6227 60.8701C73.0693 57.5028 72.7506 47.7932 72.7506 47.7932C72.7506 47.7932 72.9059 43.0283 68.1982 43.4615C68.1982 43.4615 70.1761 38.8518 69.2689 37.0864C70.7868 37.4954 72.3421 37.7501 73.9112 37.8466C75.0965 37.8623 76.2635 38.1415 77.3276 38.6639C77.8767 38.9043 78.3612 39.2711 78.7415 39.7345C79.0157 40.1053 79.4052 40.3746 79.8489 40.5003C80.2926 40.626 80.7654 40.601 81.1934 40.4292C81.572 41.6071 82.0392 42.7546 82.591 43.8619L82.779 44.2052C82.8771 44.3605 82.9669 44.5158 83.065 44.6547C83.1626 44.8468 83.3127 45.0072 83.498 45.1171C83.6832 45.2271 83.8959 45.2822 84.1112 45.2759Z" fill="#F86D70"/>
    <path opacity="0.1" d="M88.4262 41.6223C88.2566 41.8631 88.068 42.0899 87.8622 42.3006C87.3393 42.8374 86.7139 43.2637 86.0232 43.5543C85.3325 43.8449 84.5904 43.9939 83.841 43.9924C83.6449 43.9924 83.4488 43.9924 83.2608 43.9924C83.3789 43.5322 83.3175 43.0442 83.0891 42.6275C82.1819 41.2872 88.4997 39.4155 88.4997 39.4155C88.4226 40.1484 88.3981 40.8859 88.4262 41.6223Z" fill="black"/>
    <path d="M89.4639 38.2141C89.4639 39.3262 89.1341 40.4134 88.5163 41.3381C87.8984 42.2628 87.0202 42.9835 85.9927 43.4091C84.9652 43.8347 83.8346 43.946 82.7438 43.7291C81.6531 43.5121 80.6512 42.9766 79.8648 42.1902C79.0784 41.4038 78.5428 40.4018 78.3258 39.3111C78.1088 38.2203 78.2202 37.0897 78.6458 36.0622C79.0714 35.0348 79.7921 34.1565 80.7168 33.5387C81.6415 32.9208 82.7287 32.591 83.8408 32.591C84.5808 32.5855 85.3145 32.7273 85.9991 33.008C86.6838 33.2886 87.3059 33.7026 87.8291 34.2258C88.3524 34.7491 88.7663 35.3711 89.047 36.0558C89.3277 36.7405 89.4694 37.4741 89.4639 38.2141Z" fill="#A0616A"/>
    <path opacity="0.1" d="M92.2432 51.0623L92.3576 54.8219C92.3576 54.8219 94.0412 53.4733 94.0903 52.182C94.1393 50.8906 92.2432 51.0623 92.2432 51.0623Z" fill="black"/>
    <path opacity="0.1" d="M78.7002 54.8218C78.7002 54.8218 83.1218 60.8862 85.6882 61.4992C88.2545 62.1122 79.6646 56.7915 78.7002 54.8218Z" fill="black"/>
    <path opacity="0.1" d="M83.3838 55.4512C83.3838 55.4512 85.8357 58.23 87.6174 58.5815L83.3838 55.4512Z" fill="black"/>
    <path opacity="0.1" d="M74.7119 62.4639C74.7119 62.4639 79.2071 66.8773 81.7816 67.147L74.7119 62.4639Z" fill="black"/>
    <path opacity="0.1" d="M89.4639 38.2144C89.4576 39.6865 88.8701 41.0965 87.8293 42.1375L87.2081 41.7615C86.9719 41.6349 86.7679 41.456 86.6115 41.2384C86.4566 40.8695 86.4112 40.4637 86.4807 40.0697C86.5273 39.6537 86.4778 39.2326 86.3361 38.8387C86.1944 38.4448 85.9643 38.0886 85.6634 37.7976C84.5928 36.9803 82.8846 37.4134 81.8139 36.5798C81.5541 36.3562 81.3234 36.1008 81.1273 35.8197L80.1139 34.463L79.9014 34.2014C80.6919 33.4253 81.694 32.9 82.7819 32.6914C83.8699 32.4828 84.9953 32.6002 86.0168 33.0289C87.0382 33.4576 87.9103 34.1784 88.5236 35.1009C89.1369 36.0235 89.464 37.1066 89.4639 38.2144Z" fill="black"/>
    <path d="M80.4332 31.0222C80.9634 30.6793 81.5243 30.3866 82.1087 30.1476C82.6644 29.8698 83.1712 29.5102 83.7433 29.265C84.2995 28.9838 84.9405 28.9197 85.5414 29.0851C86.8 29.5183 87.2741 31.2755 88.5736 31.5861C88.7861 31.6351 89.0149 31.6351 89.2356 31.676C89.6549 31.7561 90.0527 31.9233 90.4033 32.1669C90.7539 32.4104 91.0494 32.7249 91.2707 33.09C91.7012 33.8349 91.9241 34.6816 91.9164 35.5419C91.9308 36.0188 91.8617 36.4946 91.712 36.9476C91.3279 37.9938 90.3716 38.713 89.7178 39.6203C89.1076 40.4858 88.7819 41.5199 88.7861 42.5789L87.2168 41.6063C86.9807 41.4797 86.7766 41.3008 86.6202 41.0832C86.466 40.717 86.4206 40.314 86.4894 39.9227C86.536 39.5054 86.4866 39.083 86.3449 38.6878C86.2033 38.2926 85.9731 37.935 85.6721 37.6424C84.6014 36.8251 82.8933 37.2664 81.8226 36.4246C81.5587 36.2052 81.3275 35.9493 81.1361 35.6645C80.801 35.2149 80.4577 34.7654 80.1226 34.3078C79.8232 34.0097 79.5747 33.6646 79.387 33.2861C79.1582 32.5097 79.8856 31.4472 80.4332 31.0222Z" fill="#2F2E41"/>
    <path opacity="0.1" d="M87.4211 41.4017C87.1813 41.2808 86.9739 41.1042 86.8163 40.8868C86.6614 40.5179 86.616 40.1121 86.6855 39.7181C86.7339 39.302 86.6853 38.8803 86.5435 38.4861C86.4017 38.0919 86.1706 37.7359 85.8682 37.4459C84.8057 36.6286 83.0975 37.0618 82.0187 36.2282C81.7589 36.0046 81.5282 35.7492 81.3321 35.4681C80.997 35.0186 80.6619 34.5609 80.3187 34.1114C80.0173 33.8119 79.7686 33.4638 79.5831 33.0815C79.5496 32.7232 79.5993 32.362 79.7283 32.026C79.8573 31.69 80.0621 31.3884 80.3268 31.1445C80.0123 31.3952 79.7643 31.7194 79.6047 32.0886C79.4451 32.4577 79.3787 32.8605 79.4115 33.2613C79.5992 33.6398 79.8477 33.9849 80.1471 34.283C80.4822 34.7407 80.8254 35.1902 81.1605 35.6397C81.3519 35.9245 81.5831 36.1805 81.847 36.3998C82.9177 37.2171 84.6259 36.7676 85.6966 37.6176C85.9976 37.9103 86.2277 38.2679 86.3693 38.6631C86.511 39.0583 86.5604 39.4806 86.5139 39.8979C86.445 40.2893 86.4904 40.6922 86.6446 41.0585C86.801 41.276 87.0051 41.4549 87.2413 41.5815L88.8105 42.5541C88.8105 42.4642 88.8105 42.3662 88.8105 42.2763L87.4211 41.4017Z" fill="black"/>
    <path d="M65.7619 108.421C65.7619 108.421 64.1927 108.748 64.5115 113.031C64.8302 117.313 65.3288 118.065 65.9581 118.114C66.5874 118.163 69.7341 118.931 69.5706 117.37C69.4072 115.809 69.2519 112.287 69.4644 111.747C69.6769 111.208 70.5269 109.769 69.7177 109.418L69.0639 110.235C69.0639 110.235 67.3557 108.658 66.3341 109.802C66.3341 109.835 65.386 108.789 65.7619 108.421Z" fill="#2F2E41"/>
    <path opacity="0.1" d="M66.751 111.069C67.0861 111.224 67.4048 111.428 67.7399 111.592C68.0728 111.765 68.4437 111.852 68.8187 111.845C68.9778 111.838 69.1313 111.784 69.2601 111.69" fill="black"/>
    <path opacity="0.1" d="M77.041 115.27C77.2242 115.471 77.4179 115.662 77.6213 115.842C77.9674 116.025 78.3591 116.105 78.7492 116.071C78.8113 116.083 78.8751 116.083 78.9372 116.071C79.0087 116.038 79.0685 115.984 79.1088 115.916L79.3213 115.646" fill="black"/>
    <path d="M50.6498 44.0496C50.6498 44.0496 49.9305 37.1924 52.7421 38.8842C55.5536 40.576 53.6084 43.5674 53.6084 43.5674L52.9546 45.6842L50.6498 44.0496Z" fill="#FFC1C7"/>
    <path d="M55.1455 22.1543L56.7801 20.5769C56.7801 20.5769 59.8532 11.7173 62.9099 13.9894C65.9667 16.2615 59.0359 22.0235 59.0359 22.0235L57.2051 24.1648L55.1455 22.1543Z" fill="#FFC1C7"/>
    <path d="M31.6481 57.1921L31.5664 59.0065C31.5664 59.0065 33.0376 61.5811 33.6587 61.7691C34.2799 61.957 34.2145 56.334 34.2145 56.334L31.6481 57.1921Z" fill="#F86D70"/>
    <path opacity="0.1" d="M31.4841 57.3471L31.4023 59.1697C31.4023 59.1697 32.8817 61.736 33.4946 61.924C34.1076 62.112 34.0586 56.4971 34.0586 56.4971L31.4841 57.3471Z" fill="black"/>
    <path d="M34.1084 55.1978L34.2147 61.9079H41.6848L41.1209 58.0011L34.1084 55.1978Z" fill="#FFC1C7"/>
    <path d="M35.8489 71.9365L36.2004 74.0779L40.5566 83.7712C40.5566 83.7712 42.5427 86.8197 40.9326 89.3861C39.3225 91.9524 37.6633 95.9736 37.4018 98.3765C37.1402 100.779 35.0234 103.199 35.0234 103.199L39.6249 105.152C39.6249 105.152 39.9436 101.319 41.2595 99.5288C42.5754 97.7389 46.6701 89.8356 46.6701 89.8356C46.6701 89.8356 47.9778 88.6587 47.6835 85.1524C47.3893 81.6462 47.422 79.186 47.422 79.186L46.9643 73.5957L35.8489 71.9365Z" fill="#2F2E41"/>
    <path opacity="0.1" d="M35.8489 71.9365L36.2004 74.0779L40.5566 83.7712C40.5566 83.7712 42.5427 86.8197 40.9326 89.3861C39.3225 91.9524 37.6633 95.9736 37.4018 98.3765C37.1402 100.779 35.0234 103.199 35.0234 103.199L39.6249 105.152C39.6249 105.152 39.9436 101.319 41.2595 99.5288C42.5754 97.7389 46.6701 89.8356 46.6701 89.8356C46.6701 89.8356 47.9778 88.6587 47.6835 85.1524C47.3893 81.6462 47.422 79.186 47.422 79.186L46.9643 73.5957L35.8489 71.9365Z" fill="black"/>
    <path d="M35.4241 102.937C35.4241 102.937 30.5203 104.432 32.1549 106.892C33.7895 109.352 39.0857 114.044 41.227 113.88C43.3684 113.717 42.5102 112.139 42.5102 112.139L40.7203 110.374C40.5686 108.763 40.5059 107.145 40.5323 105.527C40.6631 104.432 39.0039 103.893 38.7914 104.563C38.5789 105.233 35.4241 102.937 35.4241 102.937Z" fill="#F86D70"/>
    <path d="M38.5299 59.0552L34.6232 59.4802C34.2736 59.5189 33.9512 59.6874 33.7197 59.9521C33.4882 60.2169 33.3644 60.5589 33.3727 60.9105C33.4135 62.4715 33.4462 64.997 33.2256 65.4057C32.7597 66.9835 32.7958 68.6672 33.3288 70.2237C33.8617 71.7801 34.8653 73.1325 36.2006 74.0937L42.0034 75.9408L32.6943 76.611L32.9886 81.7764L34.427 80.9591L52.0972 81.7764C52.0972 81.7764 57.0991 81.2696 53.7318 75.8345C50.3645 70.3994 43.1068 65.0787 43.1068 65.0787L43.0251 60.8451L42.4938 59.6191L38.5299 59.0552Z" fill="#2F2E41"/>
    <path opacity="0.1" d="M43.3682 75.8427C44.0027 75.5674 44.687 75.4253 45.3787 75.4253C46.0704 75.4253 46.7548 75.5674 47.3893 75.8427H43.3682Z" fill="black"/>
    <path d="M33.1433 76.5458C33.1433 76.5458 27.4221 75.7285 27.3649 76.8155C27.3077 77.9025 28.1822 88.5847 30.9202 87.8655C33.6582 87.1462 32.5058 83.6073 32.5058 83.6073L34.5654 81.6294C34.5654 81.6294 34.7779 80.5343 33.413 80.6405L33.1433 76.5458Z" fill="#F86D70"/>
    <path d="M42.6734 46.616L44.9537 49.2151C44.9537 49.2151 45.9427 50.441 47.1196 48.5694C48.2965 46.6978 50.4869 43.355 50.4869 43.355C50.4869 43.355 52.9388 45.4963 53.5681 45.0631C54.1975 44.63 47.6508 53.98 47.6508 53.98C47.6508 53.98 45.5667 57.0531 42.4609 53.416L41.5537 52.991L42.6734 46.616Z" fill="#F86D70"/>
    <path opacity="0.1" d="M42.5185 46.616L44.7907 49.2151C44.7907 49.2151 45.7796 50.441 46.9565 48.5694C48.1334 46.6978 50.332 43.355 50.332 43.355C50.332 43.355 52.7839 45.4963 53.4051 45.0631C54.0262 44.63 47.4959 53.98 47.4959 53.98C47.4959 53.98 45.4036 57.0531 42.2979 53.416L41.3906 52.991L42.5185 46.616Z" fill="black"/>
    <path d="M35.7179 36.073C38.336 36.073 40.4583 33.9507 40.4583 31.3327C40.4583 28.7146 38.336 26.5923 35.7179 26.5923C33.0999 26.5923 30.9775 28.7146 30.9775 31.3327C30.9775 33.9507 33.0999 36.073 35.7179 36.073Z" fill="#FFC1C7"/>
    <path opacity="0.1" d="M35.7176 33.8739C35.7176 33.8739 31.6311 35.8028 32.1296 39.1782C32.4479 41.7088 32.6361 44.2539 32.6936 46.8037C32.6936 46.8037 34.5406 49.5335 32.0887 54.7561C32.0887 54.7561 30.5195 57.4042 31.5657 59.333C31.5657 59.333 32.7262 56.2763 35.7176 58.5157C38.7089 60.7551 43.531 61.785 43.531 61.785C43.531 61.785 41.0382 50.8657 42.5666 49.3374C42.5666 49.3374 45.2147 45.4061 42.8118 42.9215C40.4089 40.4369 41.6022 38.0994 41.6022 38.0994L49.3421 33.9475C49.3421 33.9475 50.9767 33.9474 53.1671 30.5556C54.5849 28.3627 56.1496 26.2684 57.8503 24.2869C57.8503 24.2869 56.2157 21.8349 54.6383 21.6143C54.1068 22.3134 53.7483 23.1284 53.5921 23.9927C53.3632 24.9162 51.8186 26.4446 50.4128 27.7032C49.4238 28.5859 48.4594 29.5095 47.5032 30.4249C46.7921 31.1114 45.2065 32.0595 41.782 32.6398C36.0936 33.5797 35.7176 33.8739 35.7176 33.8739Z" fill="black"/>
    <path d="M35.7176 33.5558C35.7176 33.5558 31.6311 35.4846 32.1296 38.8519C32.4477 41.3852 32.636 43.933 32.6936 46.4855C32.6936 46.4855 34.5406 49.2154 32.0887 54.4298C32.0887 54.4298 30.5195 57.086 31.5657 59.0067C31.5657 59.0067 32.7262 55.9581 35.7176 58.1894C38.7089 60.4206 43.531 61.4586 43.531 61.4586C43.531 61.4586 41.0382 50.5394 42.5666 49.011C42.5666 49.011 45.2147 45.0798 42.8118 42.587C40.4089 40.0942 41.6022 37.773 41.6022 37.773L49.3421 33.6211C49.3421 33.6211 50.9767 33.6211 53.1671 30.2211C54.5862 28.0317 56.1507 25.9401 57.8503 23.9605C57.8503 23.9605 56.2157 21.4678 54.6383 21.2798C54.1083 21.9829 53.75 22.8001 53.5921 23.6663C53.3632 24.5899 51.8186 26.1183 50.4128 27.3769C49.4238 28.2596 48.4594 29.175 47.5032 30.0985C46.7921 30.7769 45.2065 31.7332 41.782 32.3134C36.0936 33.2288 35.7176 33.5558 35.7176 33.5558Z" fill="#F86D70"/>
    <path opacity="0.1" d="M39.2246 53.7349C39.2246 53.7349 42.3794 58.3935 42.4938 59.1945C42.4611 59.1945 42.0198 54.1926 39.2246 53.7349Z" fill="black"/>
    <path opacity="0.1" d="M35.0723 38.0508C35.739 38.8066 36.6732 39.2742 37.6778 39.355C38.6825 39.4358 39.6793 39.1235 40.4583 38.4839C39.5781 38.7807 38.6467 38.8954 37.7208 38.8209C36.7949 38.7465 35.8937 38.4845 35.0723 38.0508Z" fill="black"/>
    <path opacity="0.1" d="M36.7802 26.3714C36.7223 26.1306 36.6042 25.9084 36.4369 25.7258C35.7847 24.7484 34.8927 23.9549 33.8461 23.4209C33.1303 23.1527 32.3474 23.1207 31.612 23.3295C30.8767 23.5384 30.2275 23.9771 29.7595 24.5815C29.3754 25.1046 29.1384 25.7339 28.8033 26.2897C28.1435 27.3043 27.2493 28.1453 26.1961 28.7416C25.5749 29.1258 24.9211 29.4526 24.3326 29.8858C23.2874 30.7055 22.4924 31.8012 22.0374 33.0491C21.5824 34.2971 21.4857 35.6473 21.7581 36.9474C21.987 38.0834 22.4855 39.2113 22.3547 40.3637C22.186 41.2494 21.8231 42.0868 21.2922 42.8156C20.7507 43.5548 20.3465 44.3853 20.099 45.2676C19.978 45.704 19.9829 46.1658 20.1131 46.5996C20.2432 47.0334 20.4933 47.4216 20.8345 47.7195C21.1271 47.8732 21.4013 48.0596 21.6519 48.2752C21.8087 48.454 21.9382 48.6551 22.036 48.8719C22.4168 49.5774 22.9382 50.1974 23.568 50.6936C24.1977 51.1898 24.9225 51.5517 25.6975 51.757C26.3923 51.9368 27.3321 51.8714 27.5692 51.2012C27.5956 51.0835 27.6396 50.9706 27.6999 50.8661C27.9287 50.5392 28.4273 50.7272 28.7788 50.8661C29.5845 51.2906 30.4694 51.5438 31.3778 51.6099C31.7339 51.6603 32.0971 51.6181 32.4321 51.4873C32.7196 51.3429 32.9667 51.1295 33.1514 50.8661C33.9121 49.6981 34.3388 48.3443 34.3855 46.9512C34.5163 46.0569 34.5163 45.1484 34.3855 44.2541C34.1158 42.832 33.2494 41.4998 33.3802 40.0613C33.511 38.6228 34.7614 37.2579 34.9576 35.7214C35.0539 34.918 34.8534 34.107 34.3937 33.4411C34.224 33.2351 34.0787 33.0102 33.9605 32.7709C33.9068 32.6492 33.8906 32.5142 33.9139 32.3832C33.9372 32.2522 33.9989 32.1311 34.0913 32.0353C34.1924 31.9615 34.3059 31.9062 34.4264 31.8719C34.9002 31.656 35.3042 31.312 35.593 30.8788C35.8818 30.4456 36.0439 29.9404 36.061 29.42C36.0514 29.0303 36.087 28.6408 36.1672 28.2594C36.3389 27.6791 36.8701 27.0171 36.7802 26.3714Z" fill="black"/>
    <path d="M36.4612 26.3714C36.4003 26.13 36.2794 25.908 36.1098 25.7258C35.4585 24.7477 34.5661 23.9539 33.5189 23.4209C32.8031 23.1527 32.0202 23.1207 31.2849 23.3295C30.5495 23.5384 29.9004 23.9771 29.4324 24.5815C29.0851 25.1344 28.7659 25.7046 28.4761 26.2897C27.8163 27.3043 26.9221 28.1453 25.8689 28.7416C25.2478 29.1258 24.5939 29.4526 24.0055 29.8858C22.961 30.7064 22.166 31.8019 21.7098 33.0493C21.2536 34.2967 21.1542 35.6466 21.4228 36.9474C21.6598 38.0834 22.1583 39.2113 22.0276 40.3637C21.8595 41.2511 21.4936 42.0892 20.9569 42.8156C20.4179 43.5552 20.0165 44.3858 19.7718 45.2676C19.6509 45.704 19.6557 46.1658 19.7859 46.5996C19.916 47.0334 20.1661 47.4216 20.5074 47.7195C20.7988 47.8751 21.0728 48.0614 21.3247 48.2752C21.479 48.4543 21.6057 48.6555 21.7007 48.8719C22.0844 49.5768 22.6076 50.1962 23.2386 50.6922C23.8695 51.1882 24.5948 51.5505 25.3704 51.757C26.0651 51.9368 27.005 51.8714 27.242 51.2012C27.2684 51.0835 27.3125 50.9706 27.3728 50.8661C27.6016 50.5392 28.1002 50.7272 28.4516 50.8661C29.2542 51.2913 30.1366 51.5446 31.0425 51.6099C31.4013 51.6603 31.7671 51.6181 32.105 51.4873C32.3914 51.3447 32.6363 51.1308 32.816 50.8661C33.5802 49.6998 34.0073 48.3449 34.0502 46.9512C34.185 46.0572 34.185 45.1481 34.0502 44.2541C33.7805 42.832 32.9141 41.4998 33.0367 40.0613C33.1593 38.6228 34.4261 37.2579 34.6141 35.7214C34.7151 34.9177 34.5142 34.1051 34.0502 33.4411C33.8858 33.2329 33.7434 33.0084 33.6252 32.7709C33.5715 32.6492 33.5553 32.5142 33.5786 32.3832C33.6018 32.2522 33.6636 32.1311 33.7559 32.0353C33.8553 31.9584 33.9693 31.9028 34.091 31.8719C34.5654 31.6568 34.97 31.3131 35.2589 30.8797C35.5478 30.4463 35.7095 29.9406 35.7256 29.42C35.7228 29.0302 35.7612 28.6411 35.8401 28.2594C36.0199 27.6791 36.5511 27.0171 36.4612 26.3714Z" fill="#2F2E41"/>
    <g opacity="0.1">
        <path d="M26.8908 50.8829C26.8306 50.9873 26.7865 51.1003 26.7601 51.218C26.6732 51.4052 26.5348 51.5637 26.3611 51.6752C26.1875 51.7866 25.9857 51.8463 25.7793 51.8473C26.3923 51.9045 27.0379 51.7656 27.2423 51.218C27.2687 51.1003 27.3128 50.9873 27.3731 50.8829C27.4132 50.822 27.47 50.7738 27.5365 50.7439C27.4284 50.6937 27.3069 50.6801 27.1904 50.7051C27.0738 50.7302 26.9687 50.7926 26.8908 50.8829Z" fill="black"/>
        <path d="M36.4693 26.3718C36.4119 26.1291 36.2906 25.9061 36.1179 25.7261C35.4668 24.7561 34.5737 23.9729 33.527 23.454C33.0576 23.2671 32.5512 23.1916 32.0477 23.2333C32.3828 23.2406 32.7144 23.3041 33.0284 23.4213C34.0751 23.9402 34.9682 24.7235 35.6193 25.6935C35.792 25.8735 35.9133 26.0964 35.9707 26.3391C36.0606 26.9848 35.5294 27.6468 35.3496 28.2434C35.2694 28.6249 35.2337 29.0143 35.2434 29.404C35.2244 29.9239 35.0616 30.4284 34.773 30.8613C34.4844 31.2942 34.0814 31.6385 33.6088 31.8559C33.487 31.8869 33.3729 31.9425 33.2736 32.0194C33.1803 32.1146 33.1179 32.2357 33.0946 32.367C33.0713 32.4982 33.0881 32.6334 33.1429 32.755C33.261 32.9942 33.4064 33.2191 33.576 33.4252C34.04 34.0891 34.241 34.9018 34.14 35.7055C33.9438 37.242 32.6933 38.5007 32.5544 40.0372C32.4154 41.5737 33.2981 42.816 33.5678 44.2381C33.7027 45.1321 33.7027 46.0413 33.5678 46.9353C33.5253 48.3279 33.1012 49.682 32.3419 50.8502C32.1572 51.1135 31.9101 51.3269 31.6227 51.4713C31.4568 51.5436 31.28 51.5877 31.0996 51.6021C31.4403 51.6374 31.7845 51.5926 32.1049 51.4713C32.3923 51.3269 32.6394 51.1135 32.8241 50.8502C33.5835 49.682 34.0075 48.3279 34.0501 46.9353C34.185 46.0413 34.185 45.1321 34.0501 44.2381C33.7804 42.816 32.914 41.4838 33.0366 40.0372C33.1592 38.5906 34.426 37.242 34.6222 35.7055C34.7232 34.9018 34.5222 34.0891 34.0583 33.4252C33.8886 33.2191 33.7432 32.9942 33.6251 32.755C33.5703 32.6334 33.5534 32.4982 33.5768 32.367C33.6001 32.2357 33.6625 32.1146 33.7559 32.0194C33.8552 31.9425 33.9692 31.8869 34.0909 31.8559C34.5653 31.6408 34.9699 31.2971 35.2588 30.8637C35.5478 30.4303 35.7094 29.9246 35.7255 29.404C35.7227 29.0142 35.7611 28.6252 35.84 28.2434C36.028 27.6795 36.5592 27.0175 36.4693 26.3718Z" fill="black"/>
    </g>
    <path opacity="0.1" d="M30.3887 83.0845C30.6644 83.3848 31.0191 83.6016 31.4122 83.71C31.8053 83.8184 32.221 83.814 32.6117 83.6975" fill="black"/>
    <path opacity="0.1" d="M40.6789 110.513C40.5258 110.639 40.3469 110.73 40.1549 110.78C39.9628 110.829 39.7623 110.836 39.5674 110.799" fill="black"/>
    <defs>
        <linearGradient id="paint0_linear_159_4384" x1="65.5578" y1="122.315" x2="65.5578" y2="12.9591" gradientUnits="userSpaceOnUse">
            <stop stop-color="#808080" stop-opacity="0.25"/>
            <stop offset="0.54" stop-color="#808080" stop-opacity="0.12"/>
            <stop offset="1" stop-color="#808080" stop-opacity="0.1"/>
        </linearGradient>
    </defs>
</svg>
