<svg width="32" height="32" viewBox="0 0 32 32" fill="none" xmlns="http://www.w3.org/2000/svg">
<rect width="32" height="32" rx="4" fill="#002568"/>
<path fill-rule="evenodd" clip-rule="evenodd" d="M5.40496 15.2528C4.54675 15.2528 4.1469 15.9351 4.09814 16.5011H6.71147C6.69227 15.9549 6.32168 15.2528 5.40496 15.2528ZM7.20884 17.2227H4.10789C4.17616 17.9249 4.71254 18.5195 5.58995 18.5195C5.93159 18.5195 6.32168 18.4122 6.64321 18.2074C6.71147 18.1684 6.78949 18.1489 6.85806 18.1489C7.07262 18.1489 7.29662 18.3245 7.29662 18.578C7.29662 19.1144 6.08732 19.3582 5.48298 19.3582C4.06888 19.3582 3.01562 18.3732 3.01562 16.8814C3.01562 15.5161 4.01037 14.4141 5.40496 14.4141C6.50667 14.4141 7.30637 15.0772 7.59894 16.0915C7.65776 16.2865 7.71597 16.5108 7.71597 16.7156C7.71597 16.9884 7.49197 17.2227 7.20884 17.2227Z" fill="white"/>
<path fill-rule="evenodd" clip-rule="evenodd" d="M12.0439 15.9659C11.8096 15.6148 11.3223 15.3418 10.8346 15.3418C10.035 15.3418 9.51807 15.9851 9.51807 16.8921C9.51807 17.7893 10.035 18.433 10.8346 18.433C11.3223 18.433 11.8096 18.1599 12.0439 17.8186V15.9659ZM12.5605 19.3009C12.2679 19.3009 12.0439 19.0669 12.0439 18.7841V18.5988C11.6734 19.0766 11.1367 19.3595 10.5323 19.3595C9.33278 19.3595 8.44531 18.4427 8.44531 16.8921C8.44531 15.371 9.32303 14.4153 10.5323 14.4153C11.1175 14.4153 11.6636 14.6884 12.0439 15.176V13.1963C12.0439 12.9134 12.2679 12.6797 12.5803 12.6797C12.8531 12.6797 13.0874 12.9134 13.0874 13.1963V18.7841C13.0874 19.0669 12.8531 19.3009 12.5605 19.3009Z" fill="white"/>
<path fill-rule="evenodd" clip-rule="evenodd" d="M17.9146 19.2959C17.622 19.2959 17.398 19.0615 17.398 18.779V18.6132C17.0567 18.9936 16.4716 19.3541 15.7304 19.3541C14.7161 19.3541 14.2188 18.818 14.2188 17.8623V14.9756C14.2188 14.7028 14.4431 14.4688 14.7551 14.4688C15.0282 14.4688 15.2623 14.7028 15.2623 14.9756V17.4819C15.2623 18.2036 15.6328 18.4276 16.1982 18.4276C16.7151 18.4276 17.1542 18.135 17.398 17.8233V14.9756C17.398 14.7028 17.622 14.4688 17.9341 14.4688C18.2072 14.4688 18.4415 14.7028 18.4415 14.9756V18.779C18.4415 19.0615 18.2072 19.2959 17.9146 19.2959Z" fill="white"/>
<path fill-rule="evenodd" clip-rule="evenodd" d="M20.9406 19.3012C20.6286 19.3012 20.375 19.0379 20.375 18.7256V13.2453C20.375 12.943 20.6286 12.6797 20.9598 12.6797C21.2722 12.6797 21.5352 12.943 21.5352 13.2453V18.7256C21.5352 19.0379 21.2722 19.3012 20.9406 19.3012Z" fill="#53A6F0"/>
<path fill-rule="evenodd" clip-rule="evenodd" d="M25.5455 13.7584H24.2777V18.2149H25.5455C26.9496 18.2149 27.7593 17.2104 27.7593 15.9914C27.7593 14.7431 26.9886 13.7584 25.5455 13.7584ZM25.5455 19.2386H23.8194C23.4296 19.2386 23.1172 18.9171 23.1172 18.5367V13.4362C23.1172 13.0562 23.4296 12.7344 23.8194 12.7344H25.5455C27.5737 12.7344 28.9586 14.0802 28.9586 15.9914C28.9586 17.9126 27.5737 19.2386 25.5455 19.2386Z" fill="#53A6F0"/>
</svg>
