<svg width="71" height="36" viewBox="0 0 71 36" fill="none" xmlns="http://www.w3.org/2000/svg">
<path fill-rule="evenodd" clip-rule="evenodd" d="M65.4981 21.7505C68.4915 21.7505 70.9202 24.1681 70.9202 27.151V30.6007C70.9202 33.583 68.4915 36 65.4981 36H57.4055C54.4115 36 51.9845 33.583 51.9845 30.6007V28.4701C51.9845 24.7594 48.9639 21.7505 45.2381 21.7505H6.7464C3.02058 21.7505 0 18.7423 0 15.0304V6.72018C0 3.00826 3.02058 0 6.7464 0H45.2381C48.9639 0 51.9845 3.00826 51.9845 6.72018V15.0304C51.9845 18.7423 55.0051 21.7505 58.7315 21.7505H65.4981Z" fill="black"/>
<path fill-rule="evenodd" clip-rule="evenodd" d="M43.3822 12.4795C44.0961 12.4795 44.4461 12.117 44.4461 11.4186C44.4461 10.708 44.0961 10.3461 43.3822 10.3461H40.7197V8.27602H44.979C45.6929 8.27602 46.0435 7.91411 46.0435 7.20354C46.0435 6.50507 45.6929 6.14258 44.979 6.14258H39.6043C38.8771 6.14258 38.4883 6.51775 38.4883 7.2554V14.8844C38.4883 15.6215 38.8771 15.9966 39.6043 15.9966C40.3448 15.9966 40.7197 15.6215 40.7197 14.8844V12.4795H43.3822ZM32.2045 8.27539C33.0613 8.27539 33.7359 8.66381 33.7359 9.58185C33.7359 10.4872 33.0613 10.8745 32.2045 10.8745H30.3086V8.27539H32.2045ZM33.4765 15.2855C33.6848 15.7511 33.9827 15.9966 34.3981 15.9966C34.9564 15.9966 35.6958 15.5829 35.6958 14.9363C35.6958 14.7421 35.657 14.5484 35.5535 14.341L34.515 12.2726C35.4754 11.7684 36.0464 10.8238 36.0464 9.58248C36.0464 7.5522 34.5543 6.14258 32.3993 6.14258H29.1797C28.453 6.14258 28.0625 6.51775 28.0625 7.2554V14.8844C28.0625 15.6215 28.453 15.9966 29.1797 15.9966C29.919 15.9966 30.3084 15.6215 30.3084 14.8844V12.906H32.3605L33.4765 15.2855ZM23.1826 11.4319C23.1826 12.9452 22.2604 13.85 20.9755 13.85C19.7033 13.85 18.7816 12.9452 18.7816 11.4319V7.16383C18.7816 6.42733 18.3917 6.05273 17.6517 6.05273C16.9257 6.05273 16.5352 6.42733 16.5352 7.16383V11.4319C16.5352 14.2379 18.4177 16.048 20.9755 16.048C23.546 16.048 25.4285 14.2379 25.4285 11.4319V7.16383C25.4285 6.42733 25.0386 6.05273 24.2992 6.05273C23.572 6.05273 23.1826 6.42733 23.1826 7.16383V11.4319ZM10.4723 13.9529C9.60215 13.9529 9.01782 13.7587 8.5249 13.591C8.17431 13.474 7.86247 13.3835 7.52518 13.3835C6.87605 13.3835 6.5 13.7846 6.5 14.4312C6.5 15.4783 8.64177 16.0471 10.4723 16.0471C12.6534 16.0471 14.3537 14.8836 14.3537 13.0734C14.3537 11.3791 13.2244 10.6415 11.991 10.2669L10.1604 9.71076C9.39503 9.47794 9.04386 9.27163 9.04386 8.83191C9.04386 8.34033 9.82316 8.09483 10.4462 8.09483C11.2122 8.09483 11.77 8.28847 12.2247 8.45675C12.5365 8.5599 12.809 8.66364 13.1197 8.66364C13.7173 8.66364 14.0419 8.26311 14.0419 7.61593C14.0419 6.5688 12.0951 6 10.4462 6C8.31779 6 6.74646 7.1889 6.74646 8.93507C6.74646 10.3833 7.78495 11.2114 8.96633 11.5601L10.6025 12.0517C11.4199 12.2978 12.0552 12.5046 12.0552 13.0089C12.0552 13.6169 11.2122 13.9529 10.4723 13.9529Z" fill="white"/>
</svg>
