<svg width="24" height="24" viewBox="0 0 24 24" fill="none" xmlns="http://www.w3.org/2000/svg">
    <g clip-path="url(#clip0_968_8464)">
        <path d="M12 23.25C18.2132 23.25 23.25 18.2132 23.25 12C23.25 5.7868 18.2132 0.75 12 0.75C5.7868 0.75 0.75 5.7868 0.75 12C0.75 18.2132 5.7868 23.25 12 23.25Z"
              fill="#007234" stroke="white" stroke-width="1.5" stroke-linecap="round" stroke-linejoin="round"/>
        <path d="M6 13.2231L8.45 16.7001C8.54293 16.8389 8.66768 16.9536 8.81385 17.0344C8.96002 17.1153 9.12339 17.1601 9.29037 17.1651C9.45735 17.1701 9.6231 17.1351 9.77384 17.0631C9.92458 16.9911 10.0559 16.8841 10.157 16.7511L18 6.82812"
              stroke="white" stroke-width="1.5" stroke-linecap="round" stroke-linejoin="round"/>
    </g>
    <defs>
        <clipPath id="clip0_968_8464">
            <rect width="24" height="24" fill="white"/>
        </clipPath>
    </defs>
</svg>
